<?xml version="1.0" standalone="no"?>
<!DOCTYPE svg PUBLIC "-//W3C//DTD SVG 20010904//EN"
 "http://www.w3.org/TR/2001/REC-SVG-20010904/DTD/svg10.dtd">
<svg version="1.0" xmlns="http://www.w3.org/2000/svg"
 width="512.000000pt" height="512.000000pt" viewBox="0 0 512.000000 512.000000"
 preserveAspectRatio="xMidYMid meet">
<metadata>
Created by potrace 1.14, written by Peter Selinger 2001-2017
</metadata>
<g transform="translate(0.000000,512.000000) scale(0.100000,-0.100000)"
fill="#000000" stroke="none">
<path d="M800 5105 c-219 -43 -364 -118 -510 -263 -141 -141 -220 -281 -268
-477 -16 -65 -17 -203 -17 -1785 0 -943 3 -1737 7 -1765 48 -343 315 -659 647
-765 148 -47 63 -45 1886 -45 946 0 1738 3 1760 6 374 59 680 335 784 709 l26
95 0 1740 c0 1388 -3 1750 -13 1790 -7 28 -12 52 -12 55 1 9 -37 114 -63 170
-56 126 -176 270 -298 361 -117 86 -288 158 -424 178 -113 16 -3423 12 -3505
-4z"/>
</g>
</svg>
