<?xml version="1.0" encoding="UTF-8"?>
<svg width="32px" height="32px" viewBox="0 0 32 32" version="1.1" xmlns="http://www.w3.org/2000/svg" xmlns:xlink="http://www.w3.org/1999/xlink">
    <title>favicon</title>
    <g id="favicon" stroke="none" stroke-width="1" fill="none" fill-rule="evenodd">
        <path d="M6,0 L26,0 C29.3137085,0 32,2.6862915 32,6 L32,26 C32,29.3137085 29.3137085,32 26,32 L6,32 C2.6862915,32 0,29.3137085 0,26 L0,6 C0,2.6862915 2.6862915,0 6,0 Z" id="Rectangle" fill="#111118"></path>
        <g id="Group" fill="#FFFFFF" fill-rule="nonzero">
            <g id="Logo-Inverted">
                <path d="M26.1985901,7.45360147 L25.2567716,7.45360147 L25.2567716,15.4509948 C25.2567716,18.5562479 23.502837,20.1826989 19.843498,20.1826989 C18.0514558,20.1826989 16.1396334,19.9916418 15.0990721,19.7381263 L14.8437514,19.6759216 L14.8437514,20.622811 L15.0069809,20.6577588 C16.246425,20.9231265 17.9195086,21.0794079 19.8600266,21.0794079 C23.770894,21.0794079 26.1985901,19.2462038 26.1985901,15.6345073 L26.1985901,7.45360147 Z" id="J"></path>
                <path d="M25.4732951,12.2437681 L24.5272314,12.2434482 L24.5299319,20.2278121 C24.5309801,23.327075 22.7632423,24.9504318 19.073291,24.9491842 L18.8205105,24.9478736 C17.0891928,24.9306331 15.2902793,24.7453685 14.289787,24.5036461 L14.0347622,24.4420312 L14.0350821,25.3878465 L14.1985912,25.4225694 C15.4478122,25.6878556 17.134125,25.8444199 19.0899759,25.8450825 C23.0311794,25.8464135 25.4772773,24.0174824 25.4760584,20.4110551 L25.4732951,12.2437681 Z" id="J" transform="translate(19.755410, 19.044265) rotate(60.000000) translate(-19.755410, -19.044265) "></path>
                <path d="M20.9806504,22.1411995 L20.9834128,13.9736333 L20.0373491,13.9739531 L20.0346487,21.9580378 C20.0336004,25.0574173 18.2645869,26.6821324 14.5745334,26.68338 C12.7678429,26.6839909 10.8404656,26.4938812 9.79135238,26.2410799 L9.53662575,26.1796993 L9.5363059,27.1253911 L9.70005295,27.1600589 C10.949103,27.4245021 12.6353156,27.579927 14.5911707,27.5792698 C18.5322849,27.5779328 20.9794306,25.7474889 20.9806504,22.1411995 Z" id="J" transform="translate(15.259859, 20.776452) rotate(120.000000) translate(-15.259859, -20.776452) "></path>
                <path d="M17.1147192,10.9632789 L16.1729006,10.9632789 L16.1729006,18.9606722 C16.1729006,22.0659253 14.4189661,23.6923763 10.7596271,23.6923763 C8.96758487,23.6923763 7.05576244,23.5013193 6.01520113,23.2478037 L5.75988046,23.185599 L5.75988046,24.1324885 L5.92310988,24.1674362 C7.16255405,24.4328039 8.8356376,24.5890853 10.7761557,24.5890853 C14.687023,24.5890853 17.1147192,22.7558812 17.1147192,19.1441847 L17.1147192,10.9632789 Z" id="J" transform="translate(11.437300, 17.776182) rotate(180.000000) translate(-11.437300, -17.776182) "></path>
                <path d="M17.9775667,6.18016194 L17.031503,6.17984208 L17.0342035,14.164206 C17.0352517,17.2634689 15.2675138,18.8868256 11.5775625,18.8855781 C9.81288413,18.8849815 7.93294177,18.7023534 6.86867764,18.4576246 L6.53903379,18.3784251 L6.53935369,19.3242403 L6.70286278,19.3589633 C7.95208376,19.6242495 9.63839657,19.7808137 11.5942475,19.7814764 C15.535451,19.7828073 17.9815489,17.9538762 17.98033,14.347449 L17.9775667,6.18016194 Z" id="J" transform="translate(12.259682, 12.980659) rotate(240.000000) translate(-12.259682, -12.980659) "></path>
                <path d="M22.4761254,12.6132224 L22.4788878,4.44565615 L21.5328241,4.44597601 L21.5301237,12.4300607 C21.5290754,15.5294402 19.7600619,17.1541553 16.0700084,17.1554029 C14.2633179,17.1560137 12.3359406,16.9659041 11.2868274,16.7131028 L11.0321008,16.6517222 L11.0317809,17.597414 L11.195528,17.6320818 C12.444578,17.896525 14.1307906,18.0519499 16.0866457,18.0512927 C20.02776,18.0499557 22.4749056,16.2195118 22.4761254,12.6132224 Z" id="J" transform="translate(16.755334, 11.248474) rotate(300.000000) translate(-16.755334, -11.248474) "></path>
            </g>
        </g>
    </g>
</svg>